TITLE ""
FILE "P1Q_t_0659-0668.mp3" MP3
  TRACK 01 AUDIO
    TITLE "P1Q_t_0659-0668_01"
    INDEX 01 00:00:00
  TRACK 02 AUDIO
    TITLE "P1Q_t_0659-0668_02"
    INDEX 01 00:00:73
  TRACK 03 AUDIO
    TITLE "P1Q_t_0659-0668_03"
    INDEX 01 00:01:22
  TRACK 04 AUDIO
    TITLE "P1Q_t_0659-0668_04"
    INDEX 01 00:04:32
  TRACK 05 AUDIO
    TITLE "P1Q_t_0659-0668_05"
    INDEX 01 00:04:51
  TRACK 06 AUDIO
    TITLE "P1Q_t_0659-0668_06"
    INDEX 01 00:09:23
  TRACK 07 AUDIO
    TITLE "P1Q_t_0659-0668_07"
    INDEX 01 00:10:01
  TRACK 08 AUDIO
    TITLE "P1Q_t_0659-0668_08"
    INDEX 01 00:11:32
  TRACK 09 AUDIO
    TITLE "P1Q_t_0659-0668_09"
    INDEX 01 00:11:53
  TRACK 10 AUDIO
    TITLE "P1Q_t_0659-0668_10"
    INDEX 01 00:13:54
  TRACK 11 AUDIO
    TITLE "P1Q_t_0659-0668_11"
    INDEX 01 00:13:74
  TRACK 12 AUDIO
    TITLE "P1Q_t_0659-0668_12"
    INDEX 01 00:19:47
  TRACK 13 AUDIO
    TITLE "P1Q_t_0659-0668_13"
    INDEX 01 00:20:19
  TRACK 14 AUDIO
    TITLE "P1Q_t_0659-0668_14"
    INDEX 01 00:21:32
  TRACK 15 AUDIO
    TITLE "P1Q_t_0659-0668_15"
    INDEX 01 00:21:54
  TRACK 16 AUDIO
    TITLE "P1Q_t_0659-0668_16"
    INDEX 01 00:23:62
  TRACK 17 AUDIO
    TITLE "P1Q_t_0659-0668_17"
    INDEX 01 00:24:07
  TRACK 18 AUDIO
    TITLE "P1Q_t_0659-0668_18"
    INDEX 01 00:28:56
  TRACK 19 AUDIO
    TITLE "P1Q_t_0659-0668_19"
    INDEX 01 00:29:26
  TRACK 20 AUDIO
    TITLE "P1Q_t_0659-0668_20"
    INDEX 01 00:30:45
  TRACK 21 AUDIO
    TITLE "P1Q_t_0659-0668_21"
    INDEX 01 00:30:68
  TRACK 22 AUDIO
    TITLE "P1Q_t_0659-0668_22"
    INDEX 01 00:32:65
  TRACK 23 AUDIO
    TITLE "P1Q_t_0659-0668_23"
    INDEX 01 00:33:10
  TRACK 24 AUDIO
    TITLE "P1Q_t_0659-0668_24"
    INDEX 01 00:38:56
  TRACK 25 AUDIO
    TITLE "P1Q_t_0659-0668_25"
    INDEX 01 00:39:26
  TRACK 26 AUDIO
    TITLE "P1Q_t_0659-0668_26"
    INDEX 01 00:40:35
  TRACK 27 AUDIO
    TITLE "P1Q_t_0659-0668_27"
    INDEX 01 00:40:57
  TRACK 28 AUDIO
    TITLE "P1Q_t_0659-0668_28"
    INDEX 01 00:42:71
  TRACK 29 AUDIO
    TITLE "P1Q_t_0659-0668_29"
    INDEX 01 00:43:16
  TRACK 30 AUDIO
    TITLE "P1Q_t_0659-0668_30"
    INDEX 01 00:47:41
  TRACK 31 AUDIO
    TITLE "P1Q_t_0659-0668_31"
    INDEX 01 00:48:13
  TRACK 32 AUDIO
    TITLE "P1Q_t_0659-0668_32"
    INDEX 01 00:49:11
  TRACK 33 AUDIO
    TITLE "P1Q_t_0659-0668_33"
    INDEX 01 00:49:34
  TRACK 34 AUDIO
    TITLE "P1Q_t_0659-0668_34"
    INDEX 01 00:53:10
  TRACK 35 AUDIO
    TITLE "P1Q_t_0659-0668_35"
    INDEX 01 00:53:30
  TRACK 36 AUDIO
    TITLE "P1Q_t_0659-0668_36"
    INDEX 01 00:58:33
  TRACK 37 AUDIO
    TITLE "P1Q_t_0659-0668_37"
    INDEX 01 00:59:03
  TRACK 38 AUDIO
    TITLE "P1Q_t_0659-0668_38"
    INDEX 01 01:00:22
  TRACK 39 AUDIO
    TITLE "P1Q_t_0659-0668_39"
    INDEX 01 01:00:44
  TRACK 40 AUDIO
    TITLE "P1Q_t_0659-0668_40"
    INDEX 01 01:01:39
  TRACK 41 AUDIO
    TITLE "P1Q_t_0659-0668_41"
    INDEX 01 01:01:59
  TRACK 42 AUDIO
    TITLE "P1Q_t_0659-0668_42"
    INDEX 01 01:06:29
  TRACK 43 AUDIO
    TITLE "P1Q_t_0659-0668_43"
    INDEX 01 01:07:01
  TRACK 44 AUDIO
    TITLE "P1Q_t_0659-0668_44"
    INDEX 01 01:08:32
  TRACK 45 AUDIO
    TITLE "P1Q_t_0659-0668_45"
    INDEX 01 01:08:53
  TRACK 46 AUDIO
    TITLE "P1Q_t_0659-0668_46"
    INDEX 01 01:11:63
  TRACK 47 AUDIO
    TITLE "P1Q_t_0659-0668_47"
    INDEX 01 01:12:10
  TRACK 48 AUDIO
    TITLE "P1Q_t_0659-0668_48"
    INDEX 01 01:17:23
  TRACK 49 AUDIO
    TITLE "P1Q_t_0659-0668_49"
    INDEX 01 01:17:68
  TRACK 50 AUDIO
    TITLE "P1Q_t_0659-0668_50"
    INDEX 01 01:19:20
  TRACK 51 AUDIO
    TITLE "P1Q_t_0659-0668_51"
    INDEX 01 01:19:41
  TRACK 52 AUDIO
    TITLE "P1Q_t_0659-0668_52"
    INDEX 01 01:20:74
  TRACK 53 AUDIO
    TITLE "P1Q_t_0659-0668_53"
    INDEX 01 01:21:21
  TRACK 54 AUDIO
    TITLE "P1Q_t_0659-0668_54"
    INDEX 01 01:25:09
  TRACK 55 AUDIO
    TITLE "P1Q_t_0659-0668_55"
    INDEX 01 01:25:54
  TRACK 56 AUDIO
    TITLE "P1Q_t_0659-0668_56"
    INDEX 01 01:26:61
  TRACK 57 AUDIO
    TITLE "P1Q_t_0659-0668_57"
    INDEX 01 01:27:09
  TRACK 58 AUDIO
    TITLE "P1Q_t_0659-0668_58"
    INDEX 01 01:31:11
  TRACK 59 AUDIO
    TITLE "P1Q_t_0659-0668_59"
    INDEX 01 01:31:33
  TRACK 60 AUDIO
    TITLE "P1Q_t_0659-0668_60"
    INDEX 01 01:37:69
